{
  "source": "C:\\Users\\Peter\\Desktop\\stuff\\MIUN\\quantitative_research\\video_compression\\videos\\BVI-HD\\BVI-HD_CDVL_videos\\ORIG\\SmokeGuns_1920x1080_60fps.mp4",
  "output": "C:\\Users\\Peter\\Desktop\\stuff\\MIUN\\quantitative_research\\video_compression\\compressed_videos\\BVI-HD\\h264\\1.5\\SmokeGuns_1920x1080_60fps_h264.mp4",
  "codec": "h264",
  "ok": "Input #0, mov,mp4,m4a,3gp,3g2,mj2, from 'C:\\Users\\Peter\\Desktop\\stuff\\MIUN\\quantitative_research\\video_compression\\videos\\BVI-HD\\BVI-HD_CDVL_videos\\ORIG\\SmokeGuns_1920x1080_60fps.mp4':\n  Metadata:\n    major_brand     : isom\n    minor_version   : 512\n    compatible_brands: isomiso2avc1mp41\n    encoder         : Lavf54.28.101\n  Duration: 00:00:05.00, start: 0.000000, bitrate: 384353 kb/s\n  Stream #0:0[0x1](und): Video: h264 (High 4:4:4 Predictive) (avc1 / 0x31637661), yuv420p(progressive), 1920x1080, 384348 kb/s, 60 fps, 60 tbr, 60 tbn (default)\n    Metadata:\n      handler_name    : VideoHandler\n      vendor_id       : [0][0][0][0]\n[out#0/mp4 @ 000001b0a4d79c00] Codec AVOption b:a (set bitrate (in bits/s)) has not been used for any stream. The most likely reason is either wrong type (e.g. a video option with no video streams) or that it is a private option of some decoder which was not actually used for any stream.\nStream mapping:\n  Stream #0:0 -> #0:0 (h264 (native) -> h264 (libx264))\nPress [q] to stop, [?] for help\n[libx264 @ 000001b0a5350ac0] using cpu capabilities: MMX2 SSE2Fast SSSE3 SSE4.2 AVX FMA3 BMI2 AVX2\n[libx264 @ 000001b0a5350ac0] profile High, level 5.0, 4:2:0, 8-bit\n[libx264 @ 000001b0a5350ac0] 264 - core 165 r3222 b35605a - H.264/MPEG-4 AVC codec - Copyleft 2003-2025 - http://www.videolan.org/x264.html - options: cabac=1 ref=5 deblock=1:0:0 analyse=0x3:0x113 me=hex subme=8 psy=1 psy_rd=1.00:0.00 mixed_ref=1 me_range=16 chroma_me=1 trellis=2 8x8dct=1 cqm=0 deadzone=21,11 fast_pskip=1 chroma_qp_offset=-2 threads=18 lookahead_threads=3 sliced_threads=0 nr=0 decimate=1 interlaced=0 bluray_compat=0 constrained_intra=0 bframes=3 b_pyramid=2 b_adapt=1 b_bias=0 direct=3 weightb=1 open_gop=0 weightp=2 keyint=250 keyint_min=25 scenecut=40 intra_refresh=0 rc_lookahead=50 rc=cbr mbtree=1 bitrate=1500 ratetol=1.0 qcomp=0.60 qpmin=0 qpmax=69 qpstep=4 vbv_maxrate=1500 vbv_bufsize=1500 nal_hrd=none filler=0 ip_ratio=1.40 aq=1:1.00\nOutput #0, mp4, to 'C:\\Users\\Peter\\Desktop\\stuff\\MIUN\\quantitative_research\\video_compression\\compressed_videos\\BVI-HD\\h264\\1.5\\SmokeGuns_1920x1080_60fps_h264.mp4':\n  Metadata:\n    major_brand     : isom\n    minor_version   : 512\n    compatible_brands: isomiso2avc1mp41\n    encoder         : Lavf62.3.100\n  Stream #0:0(und): Video: h264 (avc1 / 0x31637661), yuv420p(tv, progressive), 1920x1080, q=2-31, 1500 kb/s, 60 fps, 15360 tbn (default)\n    Metadata:\n      encoder         : Lavc62.11.100 libx264\n      handler_name    : VideoHandler\n      vendor_id       : [0][0][0][0]\n    Side data:\n      cpb: bitrate max/min/avg: 1500000/0/1500000 buffer size: 1500000 vbv_delay: N/A\nframe=    0 fps=0.0 q=0.0 size=       0KiB time=N/A bitrate=N/A speed=N/A elapsed=0:00:00.50    \nframe=    0 fps=0.0 q=0.0 size=       0KiB time=N/A bitrate=N/A speed=N/A elapsed=0:00:01.07    \nframe=    4 fps=2.5 q=49.0 size=       0KiB time=00:00:00.03 bitrate=  11.5kbits/s speed=0.0207x elapsed=0:00:01.60    \nframe=   40 fps= 18 q=44.0 size=       0KiB time=00:00:00.56 bitrate=   0.7kbits/s speed=0.259x elapsed=0:00:02.18    \nframe=   64 fps= 23 q=43.0 size=       0KiB time=00:00:01.03 bitrate=   0.4kbits/s speed=0.373x elapsed=0:00:02.77    \nframe=  100 fps= 30 q=43.0 size=       0KiB time=00:00:01.60 bitrate=   0.2kbits/s speed=0.481x elapsed=0:00:03.32    \nframe=  136 fps= 35 q=43.0 size=     256KiB time=00:00:02.16 bitrate= 968.1kbits/s speed=0.558x elapsed=0:00:03.88    \nframe=  168 fps= 38 q=42.0 size=     256KiB time=00:00:02.76 bitrate= 758.1kbits/s speed=0.621x elapsed=0:00:04.45    \nframe=  196 fps= 39 q=43.0 size=     256KiB time=00:00:03.23 bitrate= 648.7kbits/s speed=0.647x elapsed=0:00:05.00    \nframe=  233 fps= 42 q=43.0 size=     512KiB time=00:00:03.85 bitrate=1089.5kbits/s speed=0.698x elapsed=0:00:05.51    \nframe=  287 fps= 48 q=-1.0 size=     512KiB time=00:00:04.75 bitrate= 883.1kbits/s speed=0.787x elapsed=0:00:06.03    \n[mp4 @ 000001b0a4d8a600] Starting second pass: moving the moov atom to the beginning of the file\n[out#0/mp4 @ 000001b0a4d79c00] video:682KiB audio:0KiB subtitle:0KiB other streams:0KiB global headers:0KiB muxing overhead: 0.637546%\nframe=  300 fps= 49 q=-1.0 Lsize=     687KiB time=00:00:04.96 bitrate=1132.7kbits/s speed=0.814x elapsed=0:00:06.10    \n[libx264 @ 000001b0a5350ac0] frame I:2     Avg QP:38.59  size: 21414\n[libx264 @ 000001b0a5350ac0] frame P:76    Avg QP:40.81  size:  5649\n[libx264 @ 000001b0a5350ac0] frame B:222   Avg QP:45.91  size:  1017\n[libx264 @ 000001b0a5350ac0] consecutive B-frames:  1.3%  0.0%  0.0% 98.7%\n[libx264 @ 000001b0a5350ac0] mb I  I16..4: 56.1% 43.1%  0.8%\n[libx264 @ 000001b0a5350ac0] mb P  I16..4:  5.8%  1.6%  0.0%  P16..4: 25.7%  1.1%  1.0%  0.0%  0.0%    skip:64.8%\n[libx264 @ 000001b0a5350ac0] mb B  I16..4:  0.0%  0.0%  0.0%  B16..8: 13.6%  0.1%  0.0%  direct: 0.0%  skip:86.2%  L0:18.1% L1:81.6% BI: 0.3%\n[libx264 @ 000001b0a5350ac0] 8x8 transform intra:27.2% inter:96.8%\n[libx264 @ 000001b0a5350ac0] direct mvs  spatial:95.5% temporal:4.5%\n[libx264 @ 000001b0a5350ac0] coded y,uvDC,uvAC intra: 6.5% 26.1% 2.3% inter: 0.6% 1.0% 0.0%\n[libx264 @ 000001b0a5350ac0] i16 v,h,dc,p: 31% 27%  8% 34%\n[libx264 @ 000001b0a5350ac0] i8 v,h,dc,ddl,ddr,vr,hd,vl,hu: 10%  6% 39%  8%  8%  8%  8%  7%  7%\n[libx264 @ 000001b0a5350ac0] i4 v,h,dc,ddl,ddr,vr,hd,vl,hu: 14%  7% 14% 11% 14% 14%  8% 10%  8%\n[libx264 @ 000001b0a5350ac0] i8c dc,h,v,p: 84%  8%  6%  3%\n[libx264 @ 000001b0a5350ac0] Weighted P-Frames: Y:0.0% UV:0.0%\n[libx264 @ 000001b0a5350ac0] ref P L0: 54.6% 12.0% 22.7%  4.5%  6.2%\n[libx264 @ 000001b0a5350ac0] ref B L0: 87.6%  9.1%  2.4%  0.8%\n[libx264 @ 000001b0a5350ac0] ref B L1: 96.4%  3.6%\n[libx264 @ 000001b0a5350ac0] kb/s:1116.82\n",
  "seconds": 6.371081829071045,
  "probe_out": {}
}